# xmcd
#
# Track frame offsets:
#	182
#	15600
#	30597
#	44520
#	59270
#	74532
#	89647
#	99785
#	118612
#	132527
#
# Disc length: 1953 seconds
#
# Revision: 1
# Processed by: cddbd v1.4PL0 Copyright (c) Steve Scherf et al.
# Submitted via: audiograbber 1.82.00
#
DISCID=88079f0a
DTITLE=Bourbon Gautier - I Can't Complain
DYEAR=1993
DGENRE=Country
TTITLE0=Corine
TTITLE1=I Said Yes
TTITLE2=Cocaine Free
TTITLE3=I'm Going Out Of Your Mind
TTITLE4=Can You (Spare Some Change)
TTITLE5=I Can't Complain
TTITLE6=Sing Me This Song
TTITLE7=Your Shadow Dances On The Wall
TTITLE8=The Feelin's Good Around Midnight
TTITLE9=Mom Is The One
EXTD=
EXTT0=
EXTT1=
EXTT2=
EXTT3=
EXTT4=
EXTT5=
EXTT6=
EXTT7=
EXTT8=
EXTT9=
PLAYORDER=
